<svg width="80" height="80" viewBox="0 0 80 80" fill="none" xmlns="http://www.w3.org/2000/svg">
<path d="M37.5932 53.6967C37.5932 53.0942 37.7212 52.5206 37.9524 52L39.5 52L39.5 53.6967C39.5 55.0548 40.6383 56.1557 42.0424 56.1557C43.4465 56.1557 44.5847 55.0548 44.5847 53.6967L44.5847 52L46.1323 52C46.3635 52.5206 46.4915 53.0942 46.4915 53.6967C46.4915 56.0734 44.4996 58 42.0424 58C39.5852 58 37.5932 56.0734 37.5932 53.6967Z" fill="#328E36"/>
<path d="M8.71513 52C8.48396 52.5206 8.35593 53.0942 8.35593 53.6967C8.35593 56.0734 10.3479 58 12.8051 58C15.2623 58 17.2542 56.0734 17.2542 53.6967C17.2542 53.0942 17.1262 52.5206 16.895 52L15.3475 52L15.3475 53.6967C15.3475 55.0548 14.2092 56.1557 12.8051 56.1557C11.401 56.1557 10.2627 55.0548 10.2627 53.6967L10.2627 52L8.71513 52Z" fill="#328E36"/>
<path d="M20.1558 52C19.9246 52.5206 19.7966 53.0942 19.7966 53.6967C19.7966 56.0734 21.7886 58 24.2458 58C26.703 58 28.6949 56.0734 28.6949 53.6967C28.6949 53.0942 28.5669 52.5206 28.3357 52L26.7881 52L26.7881 53.6967C26.7881 55.0548 25.6499 56.1557 24.2458 56.1557C22.8416 56.1557 21.7034 55.0548 21.7034 53.6967L21.7034 52L20.1558 52Z" fill="#328E36"/>
<path d="M49.3931 52C49.1619 52.5206 49.0339 53.0942 49.0339 53.6967C49.0339 56.0734 51.0259 58 53.4831 58C55.9403 58 57.9322 56.0734 57.9322 53.6967C57.9322 53.0942 57.8042 52.5206 57.573 52L56.0254 52L56.0254 53.6967C56.0254 55.0548 54.8872 56.1557 53.4831 56.1557C52.0789 56.1557 50.9407 55.0548 50.9407 53.6967L50.9407 52L49.3931 52Z" fill="#328E36"/>
<path d="M21.748 54.1578L15.3028 54.1578C15.3321 54.0084 15.3475 53.8543 15.3475 53.6967L15.3475 52.0061L21.7034 52.0061L21.7034 53.6967C21.7034 53.8543 21.7187 54.0084 21.748 54.1578Z" fill="#328E36"/>
<path d="M26.7881 53.6967C26.7881 53.8543 26.7728 54.0084 26.7435 54.1578L39.5446 54.1578C39.5153 54.0084 39.5 53.8543 39.5 53.6967L39.5 52.0061L26.7881 52.0061L26.7881 53.6967Z" fill="#328E36"/>
<path d="M10.2627 52.0061L2 52.0061L2 54.1578L10.3073 54.1578C10.278 54.0084 10.2627 53.8543 10.2627 53.6967L10.2627 52.0061Z" fill="#328E36"/>
<path d="M44.5401 54.1578L50.9853 54.1578C50.956 54.0084 50.9407 53.8543 50.9407 53.6967L50.9407 52.0061L44.5847 52.0061L44.5847 53.6967C44.5847 53.8543 44.5694 54.0084 44.5401 54.1578Z" fill="#328E36"/>
<path d="M55.9808 54.1578C56.0101 54.0084 56.0254 53.8543 56.0254 53.6967L56.0254 52.0061L68.7373 52.0061L68.7373 53.6967C68.7373 53.8543 68.7526 54.0084 68.7819 54.1578L55.9808 54.1578Z" fill="#328E36"/>
<path d="M73.822 53.6967C73.822 53.8543 73.8067 54.0084 73.7774 54.1578L77 54.1578L77 52.0061L73.822 52.0061L73.822 53.6967Z" fill="#328E36"/>
<path d="M66.8305 53.6967C66.8305 53.0942 66.9585 52.5206 67.1897 52L68.7373 52L68.7373 53.6967C68.7373 55.0548 69.8755 56.1557 71.2797 56.1557C72.6838 56.1557 73.822 55.0548 73.822 53.6967L73.822 52L75.3696 52C75.6008 52.5206 75.7288 53.0942 75.7288 53.6967C75.7288 56.0734 73.7369 58 71.2797 58C68.8225 58 66.8305 56.0734 66.8305 53.6967Z" fill="#328E36"/>
<path d="M41.4068 27.0205C41.4068 27.7234 41.2788 28.3926 41.0476 29L39.5 29L39.5 27.0205C39.5 25.4361 38.3617 24.1516 36.9576 24.1516C35.5535 24.1516 34.4153 25.4361 34.4153 27.0205L34.4153 29L32.8677 29C32.6365 28.3926 32.5085 27.7234 32.5085 27.0205C32.5085 24.2478 34.5004 22 36.9576 22C39.4148 22 41.4068 24.2478 41.4068 27.0205Z" fill="#328E36"/>
<path d="M70.2849 29C70.516 28.3926 70.6441 27.7234 70.6441 27.0205C70.6441 24.2478 68.6521 22 66.1949 22C63.7377 22 61.7458 24.2478 61.7458 27.0205C61.7458 27.7234 61.8738 28.3926 62.105 29L63.6525 29L63.6525 27.0205C63.6525 25.4361 64.7908 24.1516 66.1949 24.1516C67.599 24.1516 68.7373 25.4361 68.7373 27.0205L68.7373 29L70.2849 29Z" fill="#328E36"/>
<path d="M58.8442 29C59.0754 28.3926 59.2034 27.7234 59.2034 27.0205C59.2034 24.2478 57.2114 22 54.7542 22C52.297 22 50.3051 24.2478 50.3051 27.0205C50.3051 27.7234 50.4331 28.3926 50.6643 29L52.2119 29L52.2119 27.0205C52.2119 25.4361 53.3501 24.1516 54.7542 24.1516C56.1584 24.1516 57.2966 25.4361 57.2966 27.0205L57.2966 29L58.8442 29Z" fill="#328E36"/>
<path d="M29.6069 29C29.8381 28.3926 29.9661 27.7234 29.9661 27.0205C29.9661 24.2478 27.9742 22 25.517 22C23.0598 22 21.0678 24.2478 21.0678 27.0205C21.0678 27.7234 21.1958 28.3926 21.427 29L22.9746 29L22.9746 27.0205C22.9746 25.4361 24.1128 24.1516 25.517 24.1516C26.9211 24.1516 28.0593 25.4361 28.0593 27.0205L28.0593 29L29.6069 29Z" fill="#328E36"/>
<path d="M57.252 26.4826L63.6972 26.4826C63.6679 26.6568 63.6525 26.8366 63.6525 27.0205L63.6525 28.9928L57.2966 28.9928L57.2966 27.0205C57.2966 26.8366 57.2813 26.6568 57.252 26.4826Z" fill="#328E36"/>
<path d="M52.2119 27.0205C52.2119 26.8366 52.2272 26.6568 52.2565 26.4826L39.4554 26.4826C39.4847 26.6568 39.5 26.8366 39.5 27.0205L39.5 28.9928L52.2119 28.9928L52.2119 27.0205Z" fill="#328E36"/>
<path d="M68.7373 28.9928L77 28.9928L77 26.4826L68.6927 26.4826C68.722 26.6568 68.7373 26.8366 68.7373 27.0205L68.7373 28.9928Z" fill="#328E36"/>
<path d="M34.4599 26.4826L28.0147 26.4826C28.044 26.6568 28.0593 26.8366 28.0593 27.0205L28.0593 28.9928L34.4153 28.9928L34.4153 27.0205C34.4153 26.8366 34.4306 26.6568 34.4599 26.4826Z" fill="#328E36"/>
<path d="M23.0192 26.4826C22.9899 26.6568 22.9746 26.8366 22.9746 27.0205L22.9746 28.9928L10.2627 28.9928L10.2627 27.0205C10.2627 26.8366 10.2474 26.6568 10.2181 26.4826L23.0192 26.4826Z" fill="#328E36"/>
<path d="M5.17796 27.0205C5.17796 26.8366 5.1933 26.6568 5.22259 26.4826L2 26.4826L2 28.9928L5.17796 28.9928L5.17796 27.0205Z" fill="#328E36"/>
<path d="M12.1695 27.0205C12.1695 27.7234 12.0415 28.3926 11.8103 29L10.2627 29L10.2627 27.0205C10.2627 25.4361 9.12446 24.1516 7.72034 24.1516C6.31623 24.1516 5.17796 25.4361 5.17796 27.0205L5.17796 29L3.63038 29C3.39921 28.3926 3.27119 27.7234 3.27119 27.0205C3.27119 24.2478 5.26315 22 7.72034 22C10.1775 22 12.1695 24.2478 12.1695 27.0205Z" fill="#328E36"/>
</svg>
