<svg width="70" height="70" viewBox="0 0 70 70" fill="none" xmlns="http://www.w3.org/2000/svg">
<path d="M28.8956 67.2913L27.2147 65.3032C26.9095 64.9421 26.7421 64.4847 26.7421 64.0119V57.4321C26.7421 53.9745 25.1981 50.7224 22.9956 48.0571C19.7317 44.1072 16.1604 38.3421 16.0065 32.7273C15.7312 22.6882 24.2646 14.277 34.7249 14.0057C45.1852 13.7344 54.2692 23.2308 53.9939 32.7273C53.8302 38.3752 49.9037 44.423 46.4669 48.6411C44.505 51.0491 43.2583 53.9984 43.2583 57.1045V64.1785C43.2583 64.7139 43.0436 65.227 42.6623 65.6029L40.8143 67.4244C40.4401 67.7932 39.9358 68 39.4104 68H30.4229C29.8343 68 29.2756 67.7407 28.8956 67.2913Z" stroke="#0F4229" stroke-width="1.5"/>
<path d="M27 57H43" stroke="#0F4229" stroke-width="1.5"/>
<path d="M35 8V3" stroke="#0F4229" stroke-width="1.5" stroke-linecap="round"/>
<path d="M48.7916 11.2844L51.2291 7.0625" stroke="#0F4229" stroke-width="1.5" stroke-linecap="round"/>
<path d="M57.4583 20.3333L61.6802 17.8958" stroke="#0F4229" stroke-width="1.5" stroke-linecap="round"/>
<path d="M60 33H65" stroke="#0F4229" stroke-width="1.5" stroke-linecap="round"/>
<path d="M56.9167 44.9792L61.1385 47.4167" stroke="#0F4229" stroke-width="1.5" stroke-linecap="round"/>
<path d="M22.25 11.2844L19.8125 7.0625" stroke="#0F4229" stroke-width="1.5" stroke-linecap="round"/>
<path d="M13.5833 20.3333L9.36145 17.8958" stroke="#0F4229" stroke-width="1.5" stroke-linecap="round"/>
<path d="M11 33H6" stroke="#0F4229" stroke-width="1.5" stroke-linecap="round"/>
<path d="M14.125 44.9792L9.90314 47.4167" stroke="#0F4229" stroke-width="1.5" stroke-linecap="round"/>
</svg>
