<svg width="70" height="70" viewBox="0 0 70 70" fill="none" xmlns="http://www.w3.org/2000/svg">
<path fill-rule="evenodd" clip-rule="evenodd" d="M63.0635 14.9782C62.3555 13.9186 61.3078 12.8709 59.3874 10.9506L59.216 10.7791C57.2957 8.85879 56.2479 7.81103 55.1883 7.10304C50.8378 4.1961 45.1645 4.1961 40.814 7.10304C39.7544 7.81104 38.7066 8.85883 36.7863 10.7793L35.0833 12.4822L33.3804 10.7794C31.4601 8.85896 30.4122 7.81104 29.3526 7.10304C25.002 4.1961 19.3288 4.1961 14.9782 7.10304C13.9186 7.81105 12.8708 8.85884 10.9504 10.7793L10.7793 10.9504C8.85887 12.8708 7.81106 13.9186 7.10306 14.9782C4.19612 19.3287 4.19612 25.002 7.10306 29.3525C7.81106 30.4121 8.85886 31.4599 10.7793 33.3803L12.4822 35.0833L10.7793 36.7862C8.85893 38.7065 7.81105 39.7544 7.10306 40.814C4.19612 45.1645 4.19612 50.8378 7.10305 55.1883C7.81103 56.2479 8.85878 57.2956 10.7791 59.2159L10.9504 59.3872C12.8707 61.3075 13.9186 62.3555 14.9782 63.0635C19.3288 65.9704 25.002 65.9704 29.3526 63.0635C30.4121 62.3555 31.4599 61.3077 33.3802 59.3874L35.0833 57.6843L36.7862 59.3872C38.7066 61.3077 39.7544 62.3555 40.814 63.0635C45.1645 65.9704 50.8378 65.9704 55.1883 63.0635C56.2479 62.3555 57.2956 61.3078 59.2158 59.3875L59.3873 59.216C61.3076 57.2958 62.3555 56.2479 63.0635 55.1883C65.9704 50.8378 65.9704 45.1645 63.0635 40.814C62.3555 39.7544 61.3077 38.7066 59.3874 36.7863L57.6843 35.0833L59.3873 33.3803C61.3077 31.4599 62.3555 30.4121 63.0635 29.3525C65.9704 25.002 65.9704 19.3287 63.0635 14.9782ZM58.2305 32.3947L56.6131 34.012L36.1545 13.5534L37.7719 11.9361C39.7984 9.90951 40.736 8.97717 41.6556 8.36266C45.4967 5.79613 50.5056 5.79614 54.3467 8.36266C55.2664 8.97718 56.2039 9.9095 58.2305 11.9361C60.257 13.9626 61.1894 14.9002 61.8039 15.8198C64.3704 19.6609 64.3704 24.6698 61.8039 28.5109C61.1894 29.4306 60.257 30.3681 58.2305 32.3947ZM28.5109 8.36266C29.4306 8.97717 30.3681 9.9095 32.3947 11.9361L58.2305 37.7719C60.257 39.7984 61.1894 40.7359 61.8039 41.6556C64.3704 45.4967 64.3704 50.5056 61.8039 54.3467C61.1894 55.2664 60.257 56.2039 58.2305 58.2305C56.2039 60.257 55.2664 61.1894 54.3467 61.8039C50.5056 64.3704 45.4967 64.3704 41.6556 61.8039C40.736 61.1893 39.7984 60.257 37.7719 58.2305L11.9361 32.3947C9.90952 30.3681 8.97719 29.4306 8.36268 28.5109C5.79615 24.6698 5.79615 19.6609 8.36268 15.8198C8.97719 14.9002 9.90952 13.9626 11.9361 11.9361C13.9626 9.9095 14.9002 8.97717 15.8199 8.36266C19.6609 5.79613 24.6698 5.79613 28.5109 8.36266ZM11.9361 37.7719L13.5535 36.1545L34.0121 56.6131L32.3947 58.2305C30.3681 60.257 29.4306 61.1894 28.5109 61.8039C24.6698 64.3704 19.6609 64.3704 15.8199 61.8039C14.9002 61.1894 13.9626 60.257 11.9361 58.2305C9.90952 56.2039 8.97718 55.2664 8.36267 54.3467C5.79615 50.5056 5.79615 45.4967 8.36267 41.6556C8.97719 40.7359 9.90952 39.7984 11.9361 37.7719Z" fill="#0F4229"/>
<path d="M19.9117 37.9117C18.3496 36.3496 18.3496 33.8169 19.9117 32.2548L32.2548 19.9117C33.8169 18.3496 36.3496 18.3496 37.9117 19.9117L50.2548 32.2548C51.8169 33.8169 51.8169 36.3496 50.2548 37.9117L37.9117 50.2548C36.3496 51.8169 33.8169 51.8169 32.2548 50.2548L19.9117 37.9117Z" fill="#0F4229"/>
<path d="M20.9411 19.5269C21.3316 19.9174 21.3316 20.5506 20.9411 20.9411C20.5506 21.3316 19.9174 21.3316 19.5269 20.9411C19.1364 20.5506 19.1364 19.9174 19.5269 19.5269C19.9174 19.1364 20.5506 19.1364 20.9411 19.5269Z" fill="#0F4229"/>
<path d="M54.8822 53.468C55.2728 53.8586 55.2728 54.4917 54.8822 54.8822C54.4917 55.2728 53.8586 55.2728 53.468 54.8822C53.0775 54.4917 53.0775 53.8586 53.468 53.468C53.8586 53.0775 54.4917 53.0775 54.8822 53.468Z" fill="#0F4229"/>
<path d="M16.6985 15.2843C17.089 15.6748 17.089 16.308 16.6985 16.6985C16.308 17.089 15.6748 17.089 15.2843 16.6985C14.8937 16.308 14.8937 15.6748 15.2843 15.2843C15.6748 14.8937 16.308 14.8937 16.6985 15.2843Z" fill="#0F4229"/>
<path d="M50.6396 49.2254C51.0301 49.6159 51.0301 50.2491 50.6396 50.6396C50.2491 51.0301 49.6159 51.0301 49.2254 50.6396C48.8349 50.2491 48.8349 49.6159 49.2254 49.2254C49.6159 48.8349 50.2491 48.8349 50.6396 49.2254Z" fill="#0F4229"/>
<path d="M16.6985 23.7696C17.089 24.1601 17.089 24.7932 16.6985 25.1838C16.308 25.5743 15.6748 25.5743 15.2843 25.1838C14.8937 24.7932 14.8937 24.1601 15.2843 23.7696C15.6748 23.379 16.308 23.379 16.6985 23.7696Z" fill="#0F4229"/>
<path d="M50.6396 57.7107C51.0301 58.1012 51.0301 58.7344 50.6396 59.1249C50.2491 59.5154 49.6159 59.5154 49.2254 59.1249C48.8349 58.7344 48.8349 58.1012 49.2254 57.7107C49.6159 57.3202 50.2491 57.3202 50.6396 57.7107Z" fill="#0F4229"/>
<path d="M12.4558 19.5269C12.8464 19.9174 12.8464 20.5506 12.4558 20.9411C12.0653 21.3316 11.4321 21.3316 11.0416 20.9411C10.6511 20.5506 10.6511 19.9174 11.0416 19.5269C11.4321 19.1364 12.0653 19.1364 12.4558 19.5269Z" fill="#0F4229"/>
<path d="M46.397 53.468C46.7875 53.8586 46.7875 54.4917 46.397 54.8822C46.0064 55.2728 45.3733 55.2728 44.9828 54.8822C44.5922 54.4917 44.5922 53.8586 44.9828 53.468C45.3733 53.0775 46.0064 53.0775 46.397 53.468Z" fill="#0F4229"/>
<path d="M25.1838 15.2843C25.5743 15.6748 25.5743 16.308 25.1838 16.6985C24.7932 17.089 24.1601 17.089 23.7695 16.6985C23.379 16.308 23.379 15.6748 23.7695 15.2843C24.1601 14.8937 24.7932 14.8937 25.1838 15.2843Z" fill="#0F4229"/>
<path d="M59.1249 49.2254C59.5154 49.6159 59.5154 50.2491 59.1249 50.6396C58.7344 51.0301 58.1012 51.0301 57.7107 50.6396C57.3202 50.2491 57.3202 49.6159 57.7107 49.2254C58.1012 48.8349 58.7344 48.8349 59.1249 49.2254Z" fill="#0F4229"/>
<path d="M20.9411 11.0416C21.3316 11.4322 21.3316 12.0653 20.9411 12.4558C20.5506 12.8464 19.9174 12.8464 19.5269 12.4558C19.1364 12.0653 19.1364 11.4322 19.5269 11.0416C19.9174 10.6511 20.5506 10.6511 20.9411 11.0416Z" fill="#0F4229"/>
<path d="M54.8822 44.9828C55.2728 45.3733 55.2728 46.0064 54.8822 46.397C54.4917 46.7875 53.8586 46.7875 53.468 46.397C53.0775 46.0064 53.0775 45.3733 53.468 44.9828C53.8586 44.5922 54.4917 44.5922 54.8822 44.9828Z" fill="#0F4229"/>
<path d="M19.5269 49.2254C19.9174 48.8349 20.5506 48.8349 20.9411 49.2254C21.3316 49.6159 21.3316 50.2491 20.9411 50.6396C20.5506 51.0301 19.9174 51.0301 19.5269 50.6396C19.1364 50.2491 19.1364 49.6159 19.5269 49.2254Z" fill="#0F4229"/>
<path d="M53.468 15.2843C53.8586 14.8937 54.4917 14.8937 54.8822 15.2843C55.2728 15.6748 55.2728 16.308 54.8822 16.6985C54.4917 17.089 53.8586 17.089 53.468 16.6985C53.0775 16.308 53.0775 15.6748 53.468 15.2843Z" fill="#0F4229"/>
<path d="M15.2843 53.468C15.6748 53.0775 16.308 53.0775 16.6985 53.468C17.089 53.8586 17.089 54.4917 16.6985 54.8822C16.308 55.2728 15.6748 55.2728 15.2843 54.8822C14.8937 54.4917 14.8937 53.8586 15.2843 53.468Z" fill="#0F4229"/>
<path d="M49.2254 19.5269C49.6159 19.1364 50.2491 19.1364 50.6396 19.5269C51.0301 19.9174 51.0301 20.5506 50.6396 20.9411C50.2491 21.3316 49.6159 21.3316 49.2254 20.9411C48.8349 20.5506 48.8349 19.9174 49.2254 19.5269Z" fill="#0F4229"/>
<path d="M23.7695 53.468C24.1601 53.0775 24.7932 53.0775 25.1838 53.468C25.5743 53.8586 25.5743 54.4917 25.1838 54.8822C24.7932 55.2728 24.1601 55.2728 23.7695 54.8822C23.379 54.4917 23.379 53.8586 23.7695 53.468Z" fill="#0F4229"/>
<path d="M57.7107 19.5269C58.1012 19.1364 58.7344 19.1364 59.1249 19.5269C59.5154 19.9174 59.5154 20.5506 59.1249 20.9411C58.7344 21.3316 58.1012 21.3316 57.7107 20.9411C57.3202 20.5506 57.3202 19.9174 57.7107 19.5269Z" fill="#0F4229"/>
<path d="M19.5269 57.7107C19.9174 57.3201 20.5506 57.3201 20.9411 57.7107C21.3316 58.1012 21.3316 58.7344 20.9411 59.1249C20.5506 59.5154 19.9174 59.5154 19.5269 59.1249C19.1364 58.7344 19.1364 58.1012 19.5269 57.7107Z" fill="#0F4229"/>
<path d="M53.468 23.7695C53.8586 23.379 54.4917 23.379 54.8822 23.7695C55.2728 24.1601 55.2728 24.7932 54.8822 25.1838C54.4917 25.5743 53.8586 25.5743 53.468 25.1838C53.0775 24.7932 53.0775 24.1601 53.468 23.7695Z" fill="#0F4229"/>
<path d="M15.2843 44.9828C15.6748 44.5922 16.308 44.5922 16.6985 44.9828C17.089 45.3733 17.089 46.0064 16.6985 46.397C16.308 46.7875 15.6748 46.7875 15.2843 46.397C14.8937 46.0064 14.8937 45.3733 15.2843 44.9828Z" fill="#0F4229"/>
<path d="M49.2254 11.0416C49.6159 10.6511 50.2491 10.6511 50.6396 11.0416C51.0301 11.4322 51.0301 12.0653 50.6396 12.4558C50.2491 12.8464 49.6159 12.8464 49.2254 12.4558C48.8349 12.0653 48.8349 11.4322 49.2254 11.0416Z" fill="#0F4229"/>
<path d="M11.0416 49.2254C11.4322 48.8349 12.0653 48.8349 12.4558 49.2254C12.8464 49.6159 12.8464 50.2491 12.4558 50.6396C12.0653 51.0301 11.4322 51.0301 11.0416 50.6396C10.6511 50.2491 10.6511 49.6159 11.0416 49.2254Z" fill="#0F4229"/>
<path d="M44.9827 15.2843C45.3733 14.8937 46.0064 14.8937 46.397 15.2843C46.7875 15.6748 46.7875 16.308 46.397 16.6985C46.0064 17.089 45.3733 17.089 44.9827 16.6985C44.5922 16.308 44.5922 15.6748 44.9827 15.2843Z" fill="#0F4229"/>
</svg>
