<svg width="70" height="70" viewBox="0 0 70 70" fill="none" xmlns="http://www.w3.org/2000/svg">
<path d="M35.106 36.9594L35.0962 37.7094H35.106V36.9594ZM8.88898 53.0651C8.64878 53.4025 8.72763 53.8708 9.06508 54.111C9.40254 54.3512 9.87083 54.2724 10.111 53.9349L8.88898 53.0651ZM58.8617 53.8938C59.0792 54.2463 59.5412 54.3558 59.8938 54.1383C60.2463 53.9208 60.3558 53.4588 60.1383 53.1062L58.8617 53.8938ZM34.3863 43.5972C34.4604 43.1897 34.1901 42.7993 33.7826 42.7252C33.3751 42.6511 32.9846 42.9214 32.9105 43.3289L34.3863 43.5972ZM40 54.4631L40.3931 53.8243L40 54.4631ZM50.2621 63.1342C50.3362 63.5417 50.7266 63.812 51.1342 63.7379C51.5417 63.6638 51.812 63.2734 51.7379 62.8658L50.2621 63.1342ZM18.8677 46.3094C18.5067 46.1063 18.0494 46.2344 17.8463 46.5954C17.6432 46.9564 17.7713 47.4137 18.1323 47.6168L18.8677 46.3094ZM23.5 58.9631L24.1923 58.6746L23.5 58.9631ZM32.2646 67.6471C32.3458 68.0533 32.7409 68.3167 33.1471 68.2354C33.5533 68.1542 33.8167 67.7591 33.7354 67.3529L32.2646 67.6471ZM13.1122 12.3669L13.1376 13.1165L13.1122 12.3669ZM58.6529 13.8327L57.9053 13.8924L58.6529 13.8327ZM35.85 42.9631V36.9631H34.35V42.9631H35.85ZM35.106 37.7094C45.5973 37.7094 51.8999 33.9689 55.4625 29.0213C58.9962 24.1141 59.7492 18.1373 59.4005 13.773L57.9053 13.8924C58.2356 18.0268 57.5083 23.6134 54.2453 28.1448C51.0113 32.6359 45.201 36.2094 35.106 36.2094V37.7094ZM10.6092 14.0325C10.3957 18.3821 11.377 24.2279 15.0102 29.0383C18.6688 33.8822 24.9416 37.5764 35.0962 37.7094L35.1158 36.2095C25.3563 36.0817 19.5477 32.5571 16.2072 28.1342C12.8413 23.6778 11.906 18.209 12.1074 14.1061L10.6092 14.0325ZM57.2514 11.4733C53.0736 10.863 47.5168 11.3606 42.9026 14.7914C38.262 18.2419 34.718 24.5511 34.3822 35.2658L35.8814 35.3128C36.2072 24.9191 39.6216 19.1002 43.7976 15.9952C47.9999 12.8706 53.1179 12.3854 57.0346 12.9575L57.2514 11.4733ZM34.3822 35.2658C34.3648 35.8185 34.356 36.383 34.356 36.9594H35.856C35.856 36.3982 35.8646 35.8495 35.8814 35.3128L34.3822 35.2658ZM35.8551 36.9962C35.8819 36.4505 35.8915 35.8755 35.8817 35.277L34.3819 35.3016C34.3912 35.8686 34.3821 36.4108 34.3569 36.9226L35.8551 36.9962ZM35.8817 35.277C35.8068 30.7155 34.6005 24.6752 31.1604 19.8264C27.6896 14.9345 21.9828 11.3157 13.0868 11.6174L13.1376 13.1165C21.5261 12.832 26.7558 16.2105 29.937 20.6944C33.1489 25.2214 34.3102 30.9354 34.3819 35.3016L35.8817 35.277ZM9.5 53.5C10.111 53.9349 10.1108 53.9352 10.1106 53.9355C10.1106 53.9355 10.1104 53.9357 10.1104 53.9358C10.1103 53.9359 10.1103 53.9359 10.1105 53.9357C10.1107 53.9353 10.1114 53.9343 10.1126 53.9327C10.115 53.9295 10.1191 53.9238 10.1251 53.9156C10.1371 53.8994 10.1565 53.8736 10.1832 53.8388C10.2368 53.7691 10.3199 53.6637 10.4335 53.5275C10.6606 53.2552 11.009 52.8601 11.4844 52.383C12.4354 51.4287 13.8932 50.1475 15.9037 48.8636C19.9191 46.2994 26.1555 43.7131 35 43.7131V42.2131C25.8445 42.2131 19.3309 44.8952 15.0963 47.5994C12.9818 48.9498 11.4396 50.3029 10.4219 51.3242C9.91291 51.835 9.53476 52.2631 9.28139 52.5669C9.15469 52.7189 9.05915 52.8398 8.99401 52.9246C8.96144 52.9669 8.93646 53.0003 8.91899 53.0239C8.91025 53.0357 8.90339 53.0451 8.89839 53.052C8.8959 53.0554 8.89386 53.0583 8.89229 53.0605C8.89151 53.0615 8.89084 53.0625 8.89029 53.0632C8.89001 53.0636 8.88968 53.0641 8.88955 53.0643C8.88925 53.0647 8.88898 53.0651 9.5 53.5ZM35 43.7131C43.8432 43.7131 49.8223 46.2984 53.5784 48.8518C55.46 50.1309 56.7904 51.4067 57.6461 52.3558C58.0739 52.8303 58.3828 53.2229 58.5823 53.4929C58.6821 53.6279 58.7545 53.7322 58.8006 53.8008C58.8237 53.835 58.8402 53.8603 58.8504 53.876C58.8554 53.8839 58.8589 53.8894 58.8608 53.8923C58.8617 53.8938 58.8623 53.8947 58.8624 53.8949C58.8625 53.8951 58.8625 53.895 58.8623 53.8948C58.8623 53.8947 58.8621 53.8945 58.8621 53.8944C58.8619 53.8941 58.8617 53.8938 59.5 53.5C60.1383 53.1062 60.1381 53.1058 60.1378 53.1053C60.1376 53.1051 60.1373 53.1046 60.1371 53.1042C60.1365 53.1034 60.1359 53.1024 60.1352 53.1012C60.1338 53.0989 60.1319 53.096 60.1297 53.0924C60.1252 53.0852 60.119 53.0756 60.1112 53.0635C60.0957 53.0393 60.0735 53.0055 60.0446 52.9626C59.9868 52.8767 59.9019 52.7547 59.7887 52.6015C59.5625 52.2953 59.223 51.8647 58.7602 51.3514C57.8346 50.3248 56.415 48.9664 54.4216 47.6113C50.4277 44.8962 44.1568 42.2131 35 42.2131V43.7131ZM32.9105 43.3289C32.3727 46.2871 33.0746 48.6609 34.4265 50.5892C35.7583 52.4891 37.7008 53.9288 39.6069 55.1018L40.3931 53.8243C38.5429 52.6857 36.8095 51.3754 35.6547 49.7282C34.5198 48.1094 33.9242 46.1391 34.3863 43.5972L32.9105 43.3289ZM39.6069 55.1018C41.2704 56.1255 42.7406 56.8306 44.0161 57.3966C45.3152 57.973 46.3367 58.3749 47.2153 58.8338C48.0696 59.2801 48.6992 59.7383 49.1777 60.3639C49.656 60.9892 50.0266 61.8389 50.2621 63.1342L51.7379 62.8658C51.4734 61.4111 51.0315 60.3187 50.3692 59.4526C49.707 58.5869 48.8679 58.0047 47.9097 57.5043C46.9758 57.0164 45.8411 56.5653 44.6245 56.0255C43.3844 55.4752 41.9796 54.8007 40.3931 53.8243L39.6069 55.1018ZM18.1323 47.6168C20.0764 48.7103 21.1792 49.7009 21.8029 50.5935C22.4131 51.4669 22.5973 52.2925 22.614 53.1386C22.6225 53.5724 22.5869 54.0136 22.5362 54.483C22.4872 54.9363 22.4198 55.4486 22.3804 55.9438C22.2995 56.961 22.3178 58.0758 22.8077 59.2515L24.1923 58.6746C23.834 57.8147 23.8032 56.9741 23.8757 56.0628C23.913 55.5937 23.973 55.1483 24.0275 54.6441C24.0802 54.1559 24.1241 53.6395 24.1137 53.109C24.0924 52.0265 23.8447 50.8968 23.0325 49.7344C22.2338 48.5914 20.9236 47.4658 18.8677 46.3094L18.1323 47.6168ZM22.8077 59.2515C24.1834 62.5531 26.5706 63.5336 28.5389 64.3048C29.5389 64.6967 30.3494 65.008 30.9905 65.4969C31.5883 65.9527 32.0505 66.5769 32.2646 67.6471L33.7354 67.3529C33.4495 65.9231 32.7867 64.9802 31.9001 64.3041C31.0568 63.6611 30.0236 63.2756 29.0861 62.9082C27.1794 62.1611 25.3166 61.373 24.1923 58.6746L22.8077 59.2515ZM12.1074 14.1061C12.1338 13.5694 12.5729 13.1357 13.1376 13.1165L13.0868 11.6174C11.7701 11.662 10.6752 12.689 10.6092 14.0325L12.1074 14.1061ZM59.4005 13.773C59.3067 12.5981 58.4237 11.6445 57.2514 11.4733L57.0346 12.9575C57.5086 13.0268 57.8667 13.4089 57.9053 13.8924L59.4005 13.773Z" fill="#0F4229"/>
<path d="M50.5 64.5C53.725 62.8875 57.0553 60.1315 59.3991 57.8393C61.0231 56.251 61.0618 53.7136 59.4682 52.0949C51.2382 43.7356 40.7338 42.5958 33.5 43.5C32 51.5 43.5 57 47 58.5C49.8 59.7 50.5 63 50.5 64.5Z" fill="#0F4229"/>
<path d="M23 52C23.4 50 20.1667 47.8333 18.5 47C15.4242 47.5592 12.0878 49.8614 9.78879 51.9935C8.28401 53.389 8.20114 55.6618 9.54187 57.2157C15.5278 64.153 25.5543 68.5 34 68.5C34.5 64.5 31 64 26.5 62C22 60 22.5 54.5 23 52Z" fill="#0F4229"/>
</svg>
