<svg width="80" height="80" viewBox="0 0 80 80" fill="none" xmlns="http://www.w3.org/2000/svg">
<path fill-rule="evenodd" clip-rule="evenodd" d="M44.4742 23.5616C45.038 24.8769 45.3799 26.1767 45.2747 27.3127C45.0518 29.7206 44.0038 31.5814 42.4224 32.6323C42.3248 33.3313 42.2521 34.0371 42.2074 34.7445C41.9984 38.0533 42.5233 40.9456 43.4377 44.1401C43.5189 44.4236 43.6108 44.6727 43.7106 44.8915C43.8132 45.1163 43.7838 45.3793 43.6341 45.5759C42.3764 47.2278 40.7948 47.6077 39.4497 47.4241C38.7942 47.3347 38.2034 47.1139 37.7342 46.8603C37.2808 46.6152 36.8827 46.3073 36.6588 46.0008C36.5255 45.8183 36.4244 45.5747 36.3441 45.3443C36.2582 45.098 36.1748 44.8024 36.0948 44.4748C35.9346 43.8185 35.7794 42.9972 35.6434 42.1106C35.3717 40.34 35.1692 38.2604 35.1631 36.6422C35.1582 35.3434 35.295 33.8873 35.499 32.5195C34.9764 32.1655 34.5144 31.7342 34.1227 31.2414C34.0097 31.7582 33.907 32.2989 33.8172 32.8587C33.2397 36.4589 33.1984 40.8519 34.4115 44.8036C34.5707 45.3224 34.7439 45.7835 34.9285 46.1935C35.0438 46.4496 34.9873 46.7504 34.7868 46.9471C34.3377 47.388 33.5161 47.99 32.4099 47.9924C31.7528 47.9938 31.224 47.8727 30.7748 47.6317C30.3311 47.3936 30.0167 47.0654 29.7543 46.7461C29.6322 46.5975 29.5341 46.3922 29.4577 46.2121C29.3728 46.0122 29.2837 45.7668 29.1933 45.4892C29.0122 44.9328 28.8166 44.2166 28.6335 43.4139C28.2771 41.8505 27.9596 39.9193 27.8991 38.159L27.897 38.096L27.8951 38.0299C27.7694 33.4255 28.7216 30.0049 28.9483 29.1904C28.9658 29.1274 28.9791 29.0796 28.9871 29.0485C29.0859 28.6645 29.2982 28.3513 29.6816 28.0715C30.0279 27.8188 30.5259 27.5844 31.2182 27.3174C31.6583 27.1476 32.1611 27.0668 32.6544 27.0373C32.6482 26.7446 32.6586 26.4475 32.6865 26.1471C32.7207 25.7777 32.8125 25.3907 32.9515 24.9923C32.7528 24.9888 32.5551 24.9971 32.3604 25.0195C31.5318 25.115 30.9248 25.2829 30.4173 25.5263C29.911 25.7692 29.4701 26.1032 28.9906 26.5738C28.7472 26.8127 28.3633 26.8308 28.0986 26.6159C27.4186 26.064 26.1889 25.3507 24.4511 25.4767C22.7864 25.5973 21.6892 26.0086 20.9207 26.6547C20.6679 26.8672 20.298 26.8639 20.049 26.647C19.5334 26.1979 18.2093 25.2432 16.3409 25.277C14.336 25.3134 13.0114 26.0491 12.2231 27.2589C12.1088 27.4343 11.9192 27.5462 11.7104 27.5615C7.97416 27.8347 6.20443 29.787 5.33074 31.6656C4.45606 33.5464 4.47613 35.379 4.47687 35.447L4.47688 35.4488C4.48656 35.7034 4.35111 35.9415 4.12731 36.0632C2.37113 37.0184 1.61666 38.7769 1.35961 40.3254C1.09924 41.8939 1.82976 44.5791 4.00943 45.9407C5.05995 46.5969 6.07455 46.6321 6.83902 46.5028C7.22378 46.4378 7.54233 46.3311 7.7624 46.2417C7.87199 46.1972 7.95581 46.1575 8.00968 46.1304C8.01404 46.1283 8.0182 46.1261 8.02216 46.1241C8.03307 46.1186 8.04244 46.1137 8.05024 46.1096C8.18099 46.0206 8.33965 45.9804 8.4982 45.9973C8.5046 45.998 8.51099 45.9988 8.51736 45.9996C8.94076 45.4804 9.38705 44.9746 9.83472 44.4949C9.07973 43.5649 8.39639 42.3921 7.82775 41.1938C7.23308 39.9406 6.75118 38.6326 6.43845 37.4964C6.2821 36.9283 6.16561 36.3945 6.09958 35.9258C6.03514 35.4685 6.01204 35.0289 6.07112 34.669C6.69893 30.8442 10.0722 29.7733 10.4261 29.6699C10.6419 29.6069 10.8749 29.6563 11.0466 29.8013C11.2184 29.9464 11.3059 30.1679 11.2799 30.3912C11.081 32.0936 11.0839 34.221 11.1358 35.2158C11.2043 36.5297 11.5224 39.5843 12.2263 42.1571C12.5971 41.8264 12.9302 41.5443 13.205 41.323C13.3835 41.5823 13.5957 41.881 13.831 42.2121C13.9468 42.3751 14.0682 42.5459 14.1939 42.7237C13.6504 40.9682 13.2128 39.1425 13.0082 37.5149C12.8671 36.3918 12.7341 34.4512 12.7223 32.6948C12.7164 31.8171 12.7406 30.9673 12.8128 30.2801C12.8488 29.9376 12.8984 29.6181 12.9682 29.3483C13.031 29.1052 13.1344 28.7991 13.3388 28.577C14.0086 27.8491 14.8979 27.4067 15.9172 27.3407C16.9289 27.2751 18.0214 27.5823 19.1198 28.2644C19.392 28.4334 19.5065 28.7713 19.3933 29.0709C18.6923 30.9254 18.3431 33.2522 18.3004 36.4691C18.2621 39.3591 18.63 40.9823 18.9067 42.203C18.9694 42.4797 19.0274 42.7357 19.075 42.981C19.2088 43.6719 19.427 44.5486 19.7738 45.436C19.9043 45.7698 20.0529 46.105 20.2222 46.4325C20.3132 46.6085 20.3216 46.8158 20.2452 46.9986C20.1688 47.1815 20.0155 47.3212 19.8263 47.3802C19.0254 47.6301 18.1642 47.8319 17.3415 47.6145C17.2996 47.6034 17.2579 47.5913 17.2163 47.578C17.5769 48.3028 17.886 49.0332 18.1056 49.7445C19.7702 49.7733 20.7438 49.0752 21.1477 48.7033C21.386 48.4838 21.7472 48.4662 22.0057 48.6614C22.7291 49.2076 23.6263 49.5588 24.7637 49.5563C26.8079 49.5519 27.9172 49.1024 28.489 48.7288C28.7492 48.5588 29.0922 48.59 29.3175 48.8042C30.2939 49.7323 31.4422 50.0225 32.5721 50.0201C33.9046 50.0172 35.0947 49.1404 35.737 48.5454C35.9806 48.3197 36.3528 48.3064 36.6119 48.5141C37.5535 49.269 38.661 49.521 39.9082 49.5672C42.5205 49.664 44.1542 47.9446 44.9659 46.7566C45.1125 46.5421 45.3699 46.4316 45.6264 46.473C46.3086 46.5833 47.0787 46.4605 47.8404 46.2487C49.4032 45.8139 50.5375 44.7743 51.0624 44.2053C51.2824 43.9669 51.6415 43.9202 51.9152 44.0944C53.3731 45.0227 55.5781 45.0483 57.1511 43.4312C57.3464 43.2305 57.6458 43.1723 57.902 43.2852C58.5047 43.5509 59.2094 43.5907 59.9711 43.6336C60.1225 43.6422 60.2767 43.6509 60.4322 43.6615C61.1419 43.7098 61.9513 43.4963 62.6604 43.2172C62.8581 43.1394 63.0426 43.0586 63.2088 42.981C62.9399 42.3762 62.7545 41.7212 62.663 41.0331C61.8092 41.4178 60.9717 41.5567 60.2987 41.5916C59.839 41.6154 59.4486 41.5912 59.1703 41.5604C59.0309 41.545 58.9187 41.5279 58.839 41.514C58.7991 41.5071 58.7672 41.501 58.7441 41.4964L58.7159 41.4905L58.7069 41.4886L58.7036 41.4878L58.7018 41.4874L58.8499 40.8336C58.7012 41.4873 58.7018 41.4874 58.7018 41.4874C58.4619 41.4329 58.2707 41.2513 58.2044 41.0145C58.1093 40.6749 58.0911 40.1211 58.1094 39.5159C58.1286 38.8786 58.1924 38.091 58.3038 37.2292C58.526 35.51 58.9427 33.454 59.5959 31.6746C60.1974 30.0358 61.0708 28.2936 61.8254 26.9496C62.2035 26.2762 62.5562 25.6948 62.836 25.2689C62.9751 25.057 63.1011 24.8761 63.2063 24.7392C63.2583 24.6715 63.3122 24.6054 63.3652 24.5487L63.3678 24.5459C63.4001 24.5112 63.5032 24.4005 63.6494 24.3329C64.2853 24.0388 66.0685 23.7509 67.8673 25.8047C69.0575 27.1635 69.244 28.8684 69.2337 29.8936C69.2319 30.0806 69.1521 30.2565 69.0168 30.3807C69.3833 30.0541 69.7127 29.7753 69.9848 29.5561C70.1633 29.8154 70.3756 30.1141 70.6109 30.4452C71.8019 32.1213 73.5818 34.6263 74.5504 37.0385C74.5686 36.8902 74.5824 36.7431 74.592 36.5979C74.6625 35.5314 74.5054 34.613 74.2745 34.0554C73.6036 32.4355 72.2622 30.9879 71.1592 30.3627C70.9346 30.2354 70.803 29.9904 70.821 29.7328C70.968 27.6279 70.3408 26.1504 68.9588 24.3792C67.5448 22.5671 65.4248 22.0758 64.0655 22.1641C63.8015 22.1812 63.5521 22.0415 63.4289 21.8074C63.065 21.116 62.2904 20.0016 60.8063 19.1922C58.7839 18.0891 56.7247 18.4001 55.5956 19.1055C55.4544 19.1937 55.2853 19.2262 55.1215 19.1967C53.9652 18.9883 52.2675 18.8341 50.8085 19.2688C48.6599 19.9089 46.7586 21.1062 45.3927 23.3245C45.2271 23.5934 44.8963 23.7103 44.5985 23.6051C44.5571 23.5905 44.5156 23.576 44.4742 23.5616ZM58.9003 20.5813C60.0325 20.8497 61.228 21.5455 62.0449 22.6644C62.2243 22.9101 62.2158 23.2458 62.0241 23.4821C61.2711 24.4102 60.3564 25.8555 59.3685 27.9509C57.7568 31.3693 56.7192 36.0824 56.5852 40.2055C56.5729 40.5831 56.5859 40.9148 56.6189 41.2063C56.6457 41.4439 56.544 41.6778 56.352 41.8201C55.7782 42.2455 55.0221 42.6905 54.2496 42.7378C53.5087 42.783 52.9612 42.6726 52.5618 42.393C52.2085 42.1457 52.0499 41.8028 51.9872 41.6672C51.98 41.6515 51.974 41.6387 51.9692 41.6291C51.9214 41.5338 51.8944 41.4247 51.8824 41.3761C51.8646 41.304 51.8461 41.2167 51.8274 41.1192C51.7898 40.9231 51.7472 40.6631 51.7038 40.3533C51.6167 39.7328 51.5239 38.8963 51.4599 37.9425C51.3325 36.044 51.3163 33.6359 51.709 31.5313L51.7184 31.4803C51.7312 31.4116 51.745 31.3371 51.7596 31.2648C52.0712 29.7232 52.579 27.7977 53.2567 25.9772C53.9288 24.1719 54.7918 22.4035 55.8405 21.2298C56.5633 20.4209 57.8146 20.3239 58.9003 20.5813ZM53.3019 21.3252C53.4328 21.5343 53.4382 21.7984 53.316 22.0127C52.3386 23.7273 51.2836 26.1301 50.5442 29.0726C49.4038 33.6116 49.6014 39.0989 50.377 41.8458C50.432 42.0404 50.3962 42.2494 50.2795 42.4147C49.6148 43.3557 48.6297 43.9932 47.7632 44.3253C47.3292 44.4916 46.8914 44.5944 46.5059 44.6069C46.3135 44.6131 46.1087 44.5978 45.9147 44.5394C45.7218 44.4813 45.4961 44.3666 45.3339 44.1443C45.0452 43.7486 44.8155 43.1611 44.6305 42.512C44.4403 41.8452 44.2795 41.0476 44.1567 40.1837C43.9114 38.4573 43.8119 36.42 43.9539 34.5571C44.1031 32.6006 44.5337 30.3591 45.2095 28.2989C45.8811 26.2513 46.8162 24.3173 48.0116 23.0309C49.4726 21.4587 51.505 21.0893 52.6898 21.0118C52.936 20.9957 53.1711 21.116 53.3019 21.3252ZM21.2191 28.8281C21.9472 27.8657 24.1731 26.8704 26.9915 28.0161C27.3249 28.1517 27.4918 28.5264 27.3695 28.865C26.939 30.0564 26.6124 31.6901 26.3984 33.2283C26.1844 34.767 26.0915 36.1478 26.1083 36.8204L26.1125 36.9916C26.132 37.7925 26.1503 38.5434 26.2815 39.6077C26.4247 40.7698 26.7025 42.3054 27.2633 44.6872C27.4052 45.2898 27.5697 45.8254 27.7516 46.3005C27.8779 46.6301 27.727 47.001 27.4066 47.1489C26.7535 47.4504 25.7952 47.7602 24.7258 47.6557C23.7978 47.565 23.0749 47.363 22.5313 47.0061C21.963 46.6331 21.6509 46.131 21.4787 45.5732C21.4633 45.5234 21.4442 45.4629 21.422 45.3924L21.421 45.3889C21.3407 45.1344 21.2198 44.7507 21.0813 44.265C20.5959 42.5629 19.894 39.608 19.9688 36.5685C20.0189 34.5351 20.1669 32.8406 20.3731 31.5555C20.4761 30.9135 20.5952 30.3632 20.7277 29.9189C20.8553 29.4912 21.0123 29.1014 21.2191 28.8281ZM4.65649 38.3015C4.86783 38.3681 5.0326 38.5348 5.09671 38.7469C5.54896 40.2434 6.23655 41.8796 7.12884 43.4706C7.23903 43.6671 7.24317 43.9058 7.13986 44.106C7.03655 44.3061 6.83961 44.4411 6.61563 44.4651C5.01291 44.637 4.14509 43.7692 3.82421 43.4483L3.81423 43.4383C3.54822 43.1725 3.32469 42.7229 3.17974 42.23C3.02792 41.7138 2.93857 41.0717 3.00151 40.3682C3.09381 39.3365 3.65349 38.7186 4.04043 38.4141C4.21456 38.277 4.44515 38.2349 4.65649 38.3015Z" fill="#328E36"/>
<path fill-rule="evenodd" clip-rule="evenodd" d="M13.3294 40.47C13.5668 40.5047 13.7789 40.6366 13.9149 40.8342C14.0833 41.0788 14.2878 41.3665 14.5172 41.6893C15.2938 42.7821 16.3559 44.2764 17.2674 45.8567C17.8616 46.8868 18.4101 47.9826 18.7896 49.0668C19.1667 50.1442 19.3959 51.2626 19.298 52.3197C19.093 54.534 18.2364 56.395 16.8545 57.6593C15.4655 58.9302 13.6086 59.539 11.5359 59.3471C7.30029 58.9549 4.60414 55.1959 4.99311 50.9951C5.08718 49.9793 5.52884 48.9253 6.10548 47.9305C6.68842 46.9249 7.44595 45.9177 8.24176 44.9844C9.83213 43.1193 11.6329 41.4822 12.6643 40.6516C12.8511 40.5012 13.0921 40.4354 13.3294 40.47ZM7.59696 48.7951C7.07692 49.6922 6.77078 50.4944 6.7097 51.1541C6.39628 54.5388 8.53412 57.3378 11.6949 57.6305C13.3205 57.781 14.6867 57.3062 15.6908 56.3875C16.7021 55.4622 17.4085 54.0277 17.5814 52.1607C17.6477 51.4446 17.4964 50.5903 17.1625 49.6364C16.831 48.6894 16.3379 47.6954 15.7741 46.7181C14.9085 45.2174 13.9189 43.8245 13.1449 42.7351C13.1096 42.6854 13.0748 42.6364 13.0405 42.5881C12.0641 43.4408 10.7437 44.7072 9.55356 46.103C8.79873 46.9882 8.1107 47.9088 7.59696 48.7951Z" fill="#328E36"/>
<path fill-rule="evenodd" clip-rule="evenodd" d="M70.9941 28.4965C71.2314 28.5312 71.4436 28.6631 71.5796 28.8607C71.748 29.1053 71.9525 29.393 72.1819 29.7158C72.9585 30.8086 74.0205 32.3029 74.9321 33.8832C75.5263 34.9133 76.0748 36.0091 76.4543 37.0934C76.8314 38.1707 77.0606 39.2891 76.9627 40.3462C76.7576 42.5605 75.9011 44.4215 74.5192 45.6859C73.1302 46.9567 71.2733 47.5656 69.2006 47.3736C64.965 46.9814 62.2688 43.2224 62.6578 39.0216C62.7518 38.0058 63.1935 36.9518 63.7702 35.957C64.3531 34.9514 65.1106 33.9442 65.9064 33.0109C67.4968 31.1458 69.2976 29.5088 70.3289 28.6782C70.5157 28.5277 70.7568 28.4619 70.9941 28.4965ZM65.2616 36.8216C64.7416 37.7187 64.4354 38.521 64.3744 39.1806C64.061 42.5653 66.1988 45.3644 69.3596 45.657C70.9851 45.8076 72.3514 45.3327 73.3555 44.414C74.3667 43.4887 75.0732 42.0542 75.2461 40.1873C75.3124 39.4711 75.1611 38.6168 74.8272 37.6629C74.4957 36.7159 74.0026 35.7219 73.4388 34.7446C72.5732 33.244 71.5836 31.851 70.8095 30.7616C70.7743 30.7119 70.7395 30.6629 70.7051 30.6146C69.7288 31.4674 68.4084 32.7337 67.2182 34.1295C66.4634 35.0147 65.7754 35.9353 65.2616 36.8216Z" fill="#328E36"/>
<path fill-rule="evenodd" clip-rule="evenodd" d="M39.9049 15.2299C40.1422 15.2646 40.3544 15.3965 40.4904 15.5941C40.6587 15.8387 40.8632 16.1264 41.0927 16.4492C41.8693 17.542 42.9313 19.0363 43.8429 20.6166C44.4371 21.6467 44.9855 22.7426 45.3651 23.8268C45.7422 24.9041 45.9713 26.0225 45.8734 27.0796C45.6684 29.2939 44.8118 31.1549 43.43 32.4193C42.041 33.6901 40.184 34.299 38.1114 34.107C33.8757 33.7148 31.1796 29.9558 31.5686 25.755C31.6626 24.7392 32.1043 23.6852 32.6809 22.6904C33.2639 21.6848 34.0214 20.6776 34.8172 19.7443C36.4076 17.8792 38.2084 16.2422 39.2397 15.4116C39.4265 15.2611 39.6675 15.1953 39.9049 15.2299ZM34.1724 23.555C33.6524 24.4521 33.3462 25.2544 33.2851 25.914C32.9717 29.2987 35.1096 32.0978 38.2703 32.3904C39.8959 32.541 41.2622 32.0661 42.2663 31.1474C43.2775 30.2221 43.984 28.7876 44.1569 26.9207C44.2232 26.2045 44.0718 25.3502 43.7379 24.3963C43.4064 23.4493 42.9133 22.4553 42.3496 21.478C41.4839 19.9774 40.4943 18.5844 39.7203 17.495C39.6851 17.4453 39.6502 17.3963 39.6159 17.348C38.6396 18.2008 37.3192 19.4671 36.129 20.8629C35.3742 21.7481 34.6861 22.6687 34.1724 23.555Z" fill="#328E36"/>
</svg>
