<svg width="70" height="70" viewBox="0 0 70 70" fill="none" xmlns="http://www.w3.org/2000/svg">
<path d="M30 33.5L51.5497 12.1188C52.2721 11.4022 53.2484 11 54.266 11V11C55.3875 11 56.4534 11.4882 57.186 12.3374L57.5084 12.7111C58.1793 13.4888 58.5484 14.4817 58.5484 15.5088V15.5088C58.5484 16.6253 58.1125 17.6975 57.3335 18.4973L51.6142 24.3694C51.2631 24.7299 51.2346 25.2952 51.5476 25.6892L54.5571 29.4768C54.6977 29.6537 54.7742 29.873 54.7742 30.0989V32.6563C54.7742 32.9291 54.8856 33.19 55.0826 33.3786L59.0787 37.2047C59.2757 37.3933 59.3871 37.6542 59.3871 37.927V40.139C59.3871 40.4219 59.5069 40.6915 59.7168 40.8811L63.6703 44.4522C63.8802 44.6418 64 44.9114 64 45.1943V46.8149C64 47.0924 63.8847 47.3574 63.6816 47.5466L47.903 62.2442C45.3117 64.6579 41.902 66 38.3607 66H29.6303C25.8645 66 22.2575 64.4829 19.6238 61.7913L13.2635 55.2913C12.5459 54.5579 12.4997 53.4004 13.1566 52.6121L17 48" stroke="#0F4229" stroke-width="1.5" stroke-linecap="round"/>
<path d="M30.6792 51.0916L32.9058 48.3059C33.6141 47.4196 34 46.3188 34 45.1842V41.1575C34 40.0556 33.636 38.9845 32.9645 38.1107L30.1878 34.4977C29.9662 34.2093 29.8291 33.8664 29.7808 33.506C28.9885 27.5932 25.8248 18.0924 18.753 21.8577C18.1522 22.1776 17.8184 22.8348 17.8301 23.5153L18.2137 45.7804C18.2219 46.2585 18.0586 46.7237 17.7534 47.0917L17 48" stroke="#0F4229" stroke-width="1.5" stroke-linecap="round"/>
<path d="M30 2V14" stroke="#0F4229" stroke-width="1.5" stroke-linecap="round"/>
<path d="M41 9L37 14" stroke="#0F4229" stroke-width="1.5" stroke-linecap="round"/>
<path d="M19 9L23 14" stroke="#0F4229" stroke-width="1.5" stroke-linecap="round"/>
<path d="M57.5 53L55.0671 52.6045C54.8438 52.5682 54.6394 52.4572 54.4873 52.2897L51.7597 49.286C51.5926 49.102 51.5 48.8623 51.5 48.6137V47.4346C51.5 47.1574 51.615 46.8926 51.8177 46.7035L59 40" stroke="#0F4229" stroke-width="1.5" stroke-linecap="round"/>
<path d="M51.5 47H49.9538C49.6654 47 49.3911 46.8755 49.2012 46.6585L46.32 43.3657C46.118 43.1348 46.0331 42.824 46.0898 42.5225L46.3503 41.1364C46.3885 40.9329 46.4891 40.7462 46.6379 40.6022L54.5 33" stroke="#0F4229" stroke-width="1.5" stroke-linecap="round"/>
<path d="M46 41H44.6003C44.3434 41 44.0962 40.9011 43.9103 40.7237L41.2403 38.1779C41.0843 38.0291 40.9805 37.8339 40.9445 37.6213L40.5885 35.5219C40.5331 35.1954 40.643 34.8627 40.8819 34.6334L53 23" stroke="#0F4229" stroke-width="1.5" stroke-linecap="round"/>
</svg>
