<svg width="80" height="80" viewBox="0 0 80 80" fill="none" xmlns="http://www.w3.org/2000/svg">
<path d="M50 43.9268C50 37.2137 42.8158 29.36 39.6694 26C36.1842 28.8 29 36.64 29 43.9268C29 51.2137 35.4178 54 39.6694 54C43.9211 54 50 50.64 50 43.9268Z" stroke="#328E36" stroke-width="1.75"/>
<circle cx="40.5" cy="62.5" r="4.5" stroke="#328E36" stroke-width="1.5"/>
<circle cx="62.5" cy="40.5" r="4.5" stroke="#328E36" stroke-width="1.5"/>
<circle cx="40.5" cy="17.5" r="4.5" stroke="#328E36" stroke-width="1.5"/>
<circle cx="17.5" cy="40.5" r="4.5" stroke="#328E36" stroke-width="1.5"/>
<circle cx="55.9685" cy="56.0154" r="4.48485" transform="rotate(-45 55.9685 56.0154)" stroke="#328E36" stroke-width="1.5"/>
<circle cx="55.9685" cy="24.3028" r="4.48485" transform="rotate(-45 55.9685 24.3028)" stroke="#328E36" stroke-width="1.5"/>
<circle cx="24.2557" cy="24.3028" r="4.48485" transform="rotate(-45 24.2557 24.3028)" stroke="#328E36" stroke-width="1.5"/>
<circle cx="24.2557" cy="56.0154" r="4.48485" transform="rotate(-45 24.2557 56.0154)" stroke="#328E36" stroke-width="1.5"/>
<path d="M40.3583 72L41.1736 71.6823L40.3583 72ZM39.5748 76.6106C39.3597 77.0433 39.5361 77.5685 39.9689 77.7836C40.4016 77.9986 40.9268 77.8222 41.1419 77.3894L39.5748 76.6106ZM40.0175 66.5584C39.2664 67.8431 38.7031 70.1626 39.5431 72.3177L41.1736 71.6823C40.5711 70.1365 40.9802 68.3791 41.5283 67.4416L40.0175 66.5584ZM39.5431 72.3177C39.8342 73.0649 40.0577 73.6411 40.1126 74.2848C40.1646 74.8954 40.0654 75.6233 39.5748 76.6106L41.1419 77.3894C41.7557 76.1545 41.9391 75.1075 41.8563 74.1362C41.7763 73.1979 41.4476 72.3853 41.1736 71.6823L39.5431 72.3177Z" fill="#328E36"/>
<path d="M40.2271 3C40.8767 4.11111 41.3629 6.14954 40.6417 8C40.0765 9.45014 39.5372 10.7778 40.6417 13" stroke="#328E36" stroke-width="1.75" stroke-linecap="round"/>
<path d="M72 40.6417L71.6823 39.8264L72 40.6417ZM76.6106 41.4252C77.0433 41.6403 77.5685 41.4639 77.7836 41.0311C77.9986 40.5984 77.8222 40.0732 77.3894 39.8581L76.6106 41.4252ZM66.5584 40.9825C67.8431 41.7336 70.1626 42.2969 72.3177 41.4569L71.6823 39.8264C70.1365 40.4289 68.3791 40.0198 67.4416 39.4717L66.5584 40.9825ZM72.3177 41.4569C73.0649 41.1658 73.6411 40.9423 74.2848 40.8874C74.8954 40.8354 75.6233 40.9346 76.6106 41.4252L77.3894 39.8581C76.1545 39.2443 75.1075 39.0609 74.1362 39.1437C73.1979 39.2237 72.3853 39.5524 71.6823 39.8264L72.3177 41.4569Z" fill="#328E36"/>
<path d="M3 40.7729C4.11111 40.1233 6.14954 39.6371 8 40.3583C9.45014 40.9235 10.7778 41.4628 13 40.3583" stroke="#328E36" stroke-width="1.75" stroke-linecap="round"/>
<path d="M63.0124 17.522L62.2105 17.1718L63.0124 17.522ZM66.8567 14.7844C67.3152 14.6316 67.563 14.136 67.4101 13.6776C67.2573 13.2191 66.7618 12.9714 66.3033 13.1242L66.8567 14.7844ZM59.3667 21.639C60.8212 21.2618 62.8799 20.0118 63.8142 17.8721L62.2105 17.1718C61.5395 18.7083 59.9912 19.6692 58.9274 19.9451L59.3667 21.639ZM63.8142 17.8721C64.1383 17.13 64.3892 16.5579 64.8095 16.0589C65.2081 15.5855 65.7992 15.1369 66.8567 14.7844L66.3033 13.1242C64.9824 13.5645 64.1042 14.1795 63.4709 14.9317C62.8591 15.6582 62.5154 16.4735 62.2105 17.1718L63.8142 17.8721Z" fill="#328E36"/>
<path d="M13.87 66.5018C14.1965 65.2427 15.302 63.4392 17.1401 62.6365C18.5805 62.0075 19.9149 61.4473 20.7077 59.0688" stroke="#328E36" stroke-width="1.75" stroke-linecap="round"/>
<path d="M17.7029 17.3186L17.3528 18.1204L17.7029 17.3186ZM14.9654 13.4742C14.8126 13.0157 14.317 12.768 13.8586 12.9208C13.4001 13.0736 13.1524 13.5691 13.3052 14.0276L14.9654 13.4742ZM21.82 20.9642C21.4428 19.5097 20.1928 17.451 18.0531 16.5167L17.3528 18.1204C18.8893 18.7914 19.8502 20.3398 20.126 21.4035L21.82 20.9642ZM18.0531 16.5167C17.311 16.1926 16.7389 15.9417 16.2399 15.5215C15.7665 15.1228 15.3179 14.5317 14.9654 13.4742L13.3052 14.0276C13.7455 15.3485 14.3605 16.2267 15.1126 16.8601C15.8391 17.4718 16.6544 17.8155 17.3528 18.1204L18.0531 16.5167Z" fill="#328E36"/>
<path d="M66.6742 66.1015C65.4151 65.775 63.6116 64.6695 62.8089 62.8314C62.1799 61.391 61.6197 60.0566 59.2412 59.2638" stroke="#328E36" stroke-width="1.75" stroke-linecap="round"/>
</svg>
