<svg width="70" height="70" viewBox="0 0 70 70" fill="none" xmlns="http://www.w3.org/2000/svg">
<path fill-rule="evenodd" clip-rule="evenodd" d="M31.2208 46.4309C31.2748 46.3103 31.3261 46.194 31.3746 46.0827C31.5649 45.6456 32.2561 45.6595 32.4356 46.1012C32.4804 46.2116 32.5283 46.3271 32.579 46.4468C33.241 48.0092 34.402 50.3129 36.0304 51.9414C37.6371 53.548 39.901 54.6996 41.4618 55.3659C41.5586 55.4073 41.6528 55.4467 41.7439 55.4844C42.197 55.6713 42.197 56.4138 41.7439 56.6008C41.6528 56.6384 41.5586 56.6779 41.4618 56.7193C39.901 57.3856 37.6371 58.5372 36.0304 60.1438C34.4379 61.7363 33.2925 63.9746 32.6236 65.5338C32.5904 65.6111 32.5585 65.6867 32.5277 65.7604C32.3353 66.2211 31.5509 66.2116 31.3641 65.7486C31.3349 65.6759 31.3044 65.6015 31.2726 65.5254C30.6426 64.0139 29.5322 61.8481 27.828 60.1438C26.0989 58.4148 23.8948 57.2971 22.3808 56.672C22.2777 56.6294 22.1777 56.5891 22.0813 56.551C21.6296 56.3727 21.6059 55.6473 22.0507 55.4524C22.1491 55.4092 22.2512 55.364 22.3564 55.3167C24.0048 54.5762 26.4296 53.3398 27.828 51.9414C29.2375 50.5319 30.4823 48.0798 31.2208 46.4309ZM31.8877 47.9583C31.8754 47.9838 31.8629 48.0095 31.8503 48.0351C31.0994 49.5728 29.9996 51.5375 28.7119 52.8253C27.4242 54.113 25.4594 55.2128 23.9218 55.9637C23.9131 55.968 23.9044 55.9722 23.8957 55.9764C25.3653 56.6732 27.1912 57.7393 28.7119 59.2599C30.2026 60.7507 31.2565 62.5347 31.9538 63.9889C32.6685 62.5076 33.73 60.6765 35.1465 59.2599C36.5794 57.827 38.4365 56.7574 39.9266 56.0426C38.4365 55.3277 36.5794 54.2581 35.1465 52.8253C33.6857 51.3644 32.6024 49.4626 31.8877 47.9583Z" fill="#0F4229"/>
<path fill-rule="evenodd" clip-rule="evenodd" d="M50.3537 25.3495C50.1831 24.9043 49.5044 24.8873 49.32 25.3269C48.3545 27.6292 46.2046 32.2975 43.7113 34.7908C41.2476 37.2545 36.6603 39.3829 34.3304 40.3646C33.8829 40.5532 33.907 41.2618 34.3632 41.4284C36.5205 42.2164 40.6216 44.0047 43.7113 47.0944C46.7326 50.1158 48.5095 54.1042 49.3235 56.2965C49.4973 56.7645 50.2586 56.777 50.4404 56.312C51.3223 54.0563 53.2045 49.9049 56.015 47.0944C58.8667 44.2427 63.099 42.3467 65.3306 41.4816C65.7876 41.3045 65.7876 40.5807 65.3306 40.4036C63.099 39.5385 58.8667 37.6425 56.015 34.7908C53.1088 31.8846 51.1952 27.5446 50.3537 25.3495Z" fill="#0F4229"/>
<path fill-rule="evenodd" clip-rule="evenodd" d="M25.5495 43.5601C26.8815 40.367 29.3194 35.4227 32.8299 31.9122C36.3733 28.3688 41.3783 25.9176 44.5694 24.5936C41.3783 23.2696 36.3733 20.8184 32.8299 17.2751C29.2342 13.6794 26.7626 8.57764 25.4521 5.39228C24.8513 6.76014 24.0528 8.46642 23.1108 10.2145C21.7614 12.7186 20.0711 15.3967 18.1928 17.2751C16.3317 19.1361 13.6859 20.8122 11.2032 22.1548C9.467 23.0936 7.76823 23.8917 6.39683 24.4962C9.50996 25.7363 14.3831 28.1024 18.1928 31.9122C21.9436 35.6629 24.2946 40.4438 25.5495 43.5601ZM25.9922 3.3434C25.8263 2.89647 25.1553 2.88183 24.974 3.32274C23.7949 6.19125 20.8051 12.895 17.3089 16.3912C13.8454 19.8547 7.23393 22.8213 4.32186 24.0228C3.87291 24.208 3.90114 24.9075 4.35956 25.0679C7.06553 26.0144 12.9441 28.4313 17.3089 32.796C21.5989 37.086 24.0071 42.8384 24.9871 45.6035C25.1539 46.0741 25.9009 46.0839 26.0771 45.6168C27.1496 42.7738 29.7335 36.7764 33.7138 32.796C37.7391 28.7707 43.8275 26.1736 46.6298 25.1236C47.0888 24.9516 47.0888 24.2356 46.6298 24.0637C43.8275 23.0136 37.7391 20.4165 33.7138 16.3912C29.6242 12.3015 27.0087 6.08247 25.9922 3.3434Z" fill="#0F4229"/>
<path d="M12.7295 39.7623C12.7295 40.3146 12.2818 40.7623 11.7295 40.7623C11.1772 40.7623 10.7295 40.3146 10.7295 39.7623C10.7295 39.21 11.1772 38.7623 11.7295 38.7623C12.2818 38.7623 12.7295 39.21 12.7295 39.7623Z" fill="#0F4229"/>
<path d="M52.7295 8.7623C52.7295 9.31458 52.2818 9.7623 51.7295 9.7623C51.1772 9.7623 50.7295 9.31458 50.7295 8.7623C50.7295 8.21001 51.1772 7.7623 51.7295 7.7623C52.2818 7.7623 52.7295 8.21001 52.7295 8.7623Z" fill="#0F4229"/>
<path d="M12.7295 49.7623C12.7295 50.3146 12.2818 50.7623 11.7295 50.7623C11.1772 50.7623 10.7295 50.3146 10.7295 49.7623C10.7295 49.21 11.1772 48.7623 11.7295 48.7623C12.2818 48.7623 12.7295 49.21 12.7295 49.7623Z" fill="#0F4229"/>
<path d="M46.7295 64.7623C46.7295 65.3146 46.2818 65.7623 45.7295 65.7623C45.1772 65.7623 44.7295 65.3146 44.7295 64.7623C44.7295 64.21 45.1772 63.7623 45.7295 63.7623C46.2818 63.7623 46.7295 64.21 46.7295 64.7623Z" fill="#0F4229"/>
<path d="M9.72953 44.7623C9.72953 45.3146 9.28181 45.7623 8.72953 45.7623C8.17724 45.7623 7.72953 45.3146 7.72953 44.7623C7.72953 44.21 8.17724 43.7623 8.72953 43.7623C9.28181 43.7623 9.72953 44.21 9.72953 44.7623Z" fill="#0F4229"/>
<path d="M51.7295 14.7623C51.7295 15.3146 51.2818 15.7623 50.7295 15.7623C50.1772 15.7623 49.7295 15.3146 49.7295 14.7623C49.7295 14.21 50.1772 13.7623 50.7295 13.7623C51.2818 13.7623 51.7295 14.21 51.7295 14.7623Z" fill="#0F4229"/>
<path d="M15.7295 44.7623C15.7295 45.3146 15.2818 45.7623 14.7295 45.7623C14.1772 45.7623 13.7295 45.3146 13.7295 44.7623C13.7295 44.21 14.1772 43.7623 14.7295 43.7623C15.2818 43.7623 15.7295 44.21 15.7295 44.7623Z" fill="#0F4229"/>
<path d="M57.7295 13.7623C57.7295 14.3146 57.2818 14.7623 56.7295 14.7623C56.1772 14.7623 55.7295 14.3146 55.7295 13.7623C55.7295 13.21 56.1772 12.7623 56.7295 12.7623C57.2818 12.7623 57.7295 13.21 57.7295 13.7623Z" fill="#0F4229"/>
<path d="M50.7295 61.7623C50.7295 62.3146 50.2818 62.7623 49.7295 62.7623C49.1772 62.7623 48.7295 62.3146 48.7295 61.7623C48.7295 61.21 49.1772 60.7623 49.7295 60.7623C50.2818 60.7623 50.7295 61.21 50.7295 61.7623Z" fill="#0F4229"/>
<path d="M46.7295 58.7623C46.7295 59.3146 46.2818 59.7623 45.7295 59.7623C45.1772 59.7623 44.7295 59.3146 44.7295 58.7623C44.7295 58.21 45.1772 57.7623 45.7295 57.7623C46.2818 57.7623 46.7295 58.21 46.7295 58.7623Z" fill="#0F4229"/>
</svg>
